<svg xmlns="http://www.w3.org/2000/svg" width="1600" height="900" viewBox="0 0 1600 900" role="img" aria-labelledby="title desc">
  <title id="title">Command Matrix</title>
  <desc id="desc">Saga command ownership by phase and state behavior.</desc>
  <!-- Generated by plugins/saga/scripts/render_docs_visuals.py from plugins/saga/docs/model/saga-docs-model.yaml. Do not edit by hand. -->
  <rect width="1600" height="900" fill="#fbfcfd"/>
  <style>
    .title { font: 700 42px -apple-system, BlinkMacSystemFont, Segoe UI, sans-serif; }
    .subtitle { font: 500 22px -apple-system, BlinkMacSystemFont, Segoe UI, sans-serif; }
    .label { font: 700 20px -apple-system, BlinkMacSystemFont, Segoe UI, sans-serif; }
    .body { font: 500 17px -apple-system, BlinkMacSystemFont, Segoe UI, sans-serif; }
    .small { font: 500 14px -apple-system, BlinkMacSystemFont, Segoe UI, sans-serif; }
  </style>
  <text x="70" y="80" class="title" fill="#17202a">
    <tspan x="70" dy="0">Command Matrix</tspan>
  </text>
  <text x="70" y="118" class="subtitle" fill="#52616f">
    <tspan x="70" dy="0">17 routable commands plus /ceo-review as the /founder-review alias.</tspan>
  </text>
  <rect x="70" y="175" width="350" height="565" rx="8" fill="#ffffff" stroke="#c7d0d8" stroke-width="2"/>
  <rect x="94" y="205" width="96" height="34" rx="17" fill="#0f7c80"/>
  <text x="108" y="228" class="small" fill="#fbfcfd">
    <tspan x="108" dy="0">Think</tspan>
  </text>
  <text x="98" y="275" class="label" fill="#2f6fbd">
    <tspan x="98" dy="0">/office-hours</tspan>
  </text>
  <text x="98" y="303" class="body" fill="#52616f">
    <tspan x="98" dy="0">frame-finding front door</tspan>
  </text>
  <rect x="275" y="253" width="118" height="34" rx="17" fill="#0f7c80"/>
  <text x="289" y="276" class="small" fill="#fbfcfd">
    <tspan x="289" dy="0">no-write</tspan>
  </text>
  <text x="98" y="369" class="label" fill="#2f6fbd">
    <tspan x="98" dy="0">/ideate</tspan>
  </text>
  <text x="98" y="397" class="body" fill="#52616f">
    <tspan x="98" dy="0">divergent idea engine</tspan>
  </text>
  <rect x="275" y="347" width="142" height="34" rx="17" fill="#2f6fbd"/>
  <text x="289" y="370" class="small" fill="#fbfcfd">
    <tspan x="289" dy="0">idea-ready</tspan>
  </text>
  <text x="98" y="463" class="label" fill="#2f6fbd">
    <tspan x="98" dy="0">/brainstorm</tspan>
  </text>
  <text x="98" y="491" class="body" fill="#52616f">
    <tspan x="98" dy="0">requirements deep-dive</tspan>
  </text>
  <rect x="275" y="441" width="130" height="34" rx="17" fill="#3f7d4d"/>
  <text x="289" y="464" class="small" fill="#fbfcfd">
    <tspan x="289" dy="0">req-ready</tspan>
  </text>
  <text x="98" y="557" class="label" fill="#2f6fbd">
    <tspan x="98" dy="0">/spec</tspan>
  </text>
  <text x="98" y="585" class="body" fill="#52616f">
    <tspan x="98" dy="0">WHAT interrogation</tspan>
  </text>
  <rect x="275" y="535" width="130" height="34" rx="17" fill="#b7791f"/>
  <text x="289" y="558" class="small" fill="#fbfcfd">
    <tspan x="289" dy="0">off-chain</tspan>
  </text>
  <text x="98" y="651" class="label" fill="#2f6fbd">
    <tspan x="98" dy="0">/strategy</tspan>
  </text>
  <text x="98" y="679" class="body" fill="#52616f">
    <tspan x="98" dy="0">durable direction anchor</tspan>
  </text>
  <rect x="275" y="629" width="130" height="34" rx="17" fill="#b7791f"/>
  <text x="289" y="652" class="small" fill="#fbfcfd">
    <tspan x="289" dy="0">off-chain</tspan>
  </text>
  <rect x="440" y="175" width="350" height="565" rx="8" fill="#ffffff" stroke="#c7d0d8" stroke-width="2"/>
  <rect x="464" y="205" width="154" height="34" rx="17" fill="#2f6fbd"/>
  <text x="478" y="228" class="small" fill="#fbfcfd">
    <tspan x="478" dy="0">Plan/Review</tspan>
  </text>
  <text x="468" y="275" class="label" fill="#2f6fbd">
    <tspan x="468" dy="0">/plan</tspan>
  </text>
  <text x="468" y="303" class="body" fill="#52616f">
    <tspan x="468" dy="0">HOW planning</tspan>
  </text>
  <rect x="645" y="253" width="130" height="34" rx="17" fill="#3f7d4d"/>
  <text x="659" y="276" class="small" fill="#fbfcfd">
    <tspan x="659" dy="0">plan tick</tspan>
  </text>
  <text x="468" y="369" class="label" fill="#2f6fbd">
    <tspan x="468" dy="0">/doc-review</tspan>
  </text>
  <text x="468" y="397" class="body" fill="#52616f">
    <tspan x="468" dy="0">implementation-readiness</tspan>
    <tspan x="468" dy="18">review</tspan>
  </text>
  <rect x="645" y="347" width="130" height="34" rx="17" fill="#b24a5a"/>
  <text x="659" y="370" class="small" fill="#fbfcfd">
    <tspan x="659" dy="0">readiness</tspan>
  </text>
  <text x="468" y="463" class="label" fill="#2f6fbd">
    <tspan x="468" dy="0">/founder-review</tspan>
  </text>
  <text x="468" y="491" class="body" fill="#52616f">
    <tspan x="468" dy="0">scope and ambition review</tspan>
  </text>
  <rect x="645" y="441" width="96" height="34" rx="17" fill="#6b5fb5"/>
  <text x="659" y="464" class="small" fill="#fbfcfd">
    <tspan x="659" dy="0">scope</tspan>
  </text>
  <text x="468" y="557" class="label" fill="#2f6fbd">
    <tspan x="468" dy="0">/code-review</tspan>
  </text>
  <text x="468" y="585" class="body" fill="#52616f">
    <tspan x="468" dy="0">pre-PR code gate</tspan>
  </text>
  <rect x="645" y="535" width="106" height="34" rx="17" fill="#b24a5a"/>
  <text x="659" y="558" class="small" fill="#fbfcfd">
    <tspan x="659" dy="0">PR gate</tspan>
  </text>
  <rect x="810" y="175" width="350" height="565" rx="8" fill="#ffffff" stroke="#c7d0d8" stroke-width="2"/>
  <rect x="834" y="205" width="106" height="34" rx="17" fill="#3f7d4d"/>
  <text x="848" y="228" class="small" fill="#fbfcfd">
    <tspan x="848" dy="0">Work/QA</tspan>
  </text>
  <text x="838" y="275" class="label" fill="#2f6fbd">
    <tspan x="838" dy="0">/work</tspan>
  </text>
  <text x="838" y="303" class="body" fill="#52616f">
    <tspan x="838" dy="0">implementation and PR loop</tspan>
  </text>
  <rect x="1015" y="253" width="96" height="34" rx="17" fill="#3f7d4d"/>
  <text x="1029" y="276" class="small" fill="#fbfcfd">
    <tspan x="1029" dy="0">writer</tspan>
  </text>
  <text x="838" y="369" class="label" fill="#2f6fbd">
    <tspan x="838" dy="0">/qa</tspan>
  </text>
  <text x="838" y="397" class="body" fill="#52616f">
    <tspan x="838" dy="0">acceptance evidence gate</tspan>
  </text>
  <rect x="1015" y="347" width="106" height="34" rx="17" fill="#0f7c80"/>
  <text x="1029" y="370" class="small" fill="#fbfcfd">
    <tspan x="1029" dy="0">QA gate</tspan>
  </text>
  <text x="838" y="463" class="label" fill="#2f6fbd">
    <tspan x="838" dy="0">/resume</tspan>
  </text>
  <text x="838" y="491" class="body" fill="#52616f">
    <tspan x="838" dy="0">forensic reconstruction</tspan>
  </text>
  <rect x="1015" y="441" width="118" height="34" rx="17" fill="#2f6fbd"/>
  <text x="1029" y="464" class="small" fill="#fbfcfd">
    <tspan x="1029" dy="0">re-entry</tspan>
  </text>
  <text x="838" y="557" class="label" fill="#2f6fbd">
    <tspan x="838" dy="0">/loop</tspan>
  </text>
  <text x="838" y="585" class="body" fill="#52616f">
    <tspan x="838" dy="0">lifecycle router and resume</tspan>
    <tspan x="838" dy="18">substrate</tspan>
  </text>
  <rect x="1015" y="535" width="96" height="34" rx="17" fill="#6b5fb5"/>
  <text x="1029" y="558" class="small" fill="#fbfcfd">
    <tspan x="1029" dy="0">router</tspan>
  </text>
  <rect x="1180" y="175" width="350" height="565" rx="8" fill="#ffffff" stroke="#c7d0d8" stroke-width="2"/>
  <rect x="1204" y="205" width="202" height="34" rx="17" fill="#b7791f"/>
  <text x="1218" y="228" class="small" fill="#fbfcfd">
    <tspan x="1218" dy="0">Off-chain/Route</tspan>
  </text>
  <text x="1208" y="275" class="label" fill="#2f6fbd">
    <tspan x="1208" dy="0">/investigate</tspan>
  </text>
  <text x="1208" y="303" class="body" fill="#52616f">
    <tspan x="1208" dy="0">root-cause diagnosis</tspan>
  </text>
  <rect x="1385" y="253" width="130" height="34" rx="17" fill="#b7791f"/>
  <text x="1399" y="276" class="small" fill="#fbfcfd">
    <tspan x="1399" dy="0">read-only</tspan>
  </text>
  <text x="1208" y="369" class="label" fill="#2f6fbd">
    <tspan x="1208" dy="0">/optimize</tspan>
  </text>
  <text x="1208" y="397" class="body" fill="#52616f">
    <tspan x="1208" dy="0">metric experiment loop</tspan>
  </text>
  <rect x="1385" y="347" width="118" height="34" rx="17" fill="#b7791f"/>
  <text x="1399" y="370" class="small" fill="#fbfcfd">
    <tspan x="1399" dy="0">optimize</tspan>
  </text>
  <text x="1208" y="463" class="label" fill="#2f6fbd">
    <tspan x="1208" dy="0">/handoff</tspan>
  </text>
  <text x="1208" y="491" class="body" fill="#52616f">
    <tspan x="1208" dy="0">issue handoff envelope</tspan>
  </text>
  <rect x="1385" y="441" width="118" height="34" rx="17" fill="#2f6fbd"/>
  <text x="1399" y="464" class="small" fill="#fbfcfd">
    <tspan x="1399" dy="0">envelope</tspan>
  </text>
  <text x="1208" y="557" class="label" fill="#2f6fbd">
    <tspan x="1208" dy="0">/retro</tspan>
  </text>
  <text x="1208" y="585" class="body" fill="#52616f">
    <tspan x="1208" dy="0">lifecycle learning</tspan>
  </text>
  <rect x="1385" y="535" width="118" height="34" rx="17" fill="#0f7c80"/>
  <text x="1399" y="558" class="small" fill="#fbfcfd">
    <tspan x="1399" dy="0">terminal</tspan>
  </text>
  <rect x="70" y="780" width="1460" height="55" rx="8" fill="#ffffff" stroke="#c7d0d8" stroke-width="2"/>
  <text x="100" y="816" class="label" fill="#b24a5a">
    <tspan x="100" dy="0">/ceo-review -&gt; /founder-review alias. Count it as a command file, not a lifecycle node.</tspan>
  </text>
</svg>
