<svg xmlns="http://www.w3.org/2000/svg" width="1600" height="900" viewBox="0 0 1600 900" role="img" aria-labelledby="title desc">
  <title id="title">Saga Lifecycle Atlas</title>
  <desc id="desc">Main Saga lifecycle, gates, off-chain routes, and destination horizon.</desc>
  <!-- Generated by plugins/saga/scripts/render_docs_visuals.py from plugins/saga/docs/model/saga-docs-model.yaml. Do not edit by hand. -->
  <rect width="1600" height="900" fill="#fbfcfd"/>
  <style>
    .title { font: 700 42px -apple-system, BlinkMacSystemFont, Segoe UI, sans-serif; }
    .subtitle { font: 500 22px -apple-system, BlinkMacSystemFont, Segoe UI, sans-serif; }
    .label { font: 700 20px -apple-system, BlinkMacSystemFont, Segoe UI, sans-serif; }
    .body { font: 500 17px -apple-system, BlinkMacSystemFont, Segoe UI, sans-serif; }
    .small { font: 500 14px -apple-system, BlinkMacSystemFont, Segoe UI, sans-serif; }
  </style>
  <text x="70" y="80" class="title" fill="#17202a">
    <tspan x="70" dy="0">Saga Lifecycle Atlas</tspan>
  </text>
  <text x="70" y="118" class="subtitle" fill="#52616f">
    <tspan x="70" dy="0">The spine moves from frame and requirements to reviewed plan, work, PR gate, QA, and learning.</tspan>
  </text>
  <rect x="70" y="205" width="190" height="150" rx="8" fill="#ffffff" stroke="#c7d0d8" stroke-width="2"/>
  <rect x="88" y="223" width="96" height="34" rx="17" fill="#0f7c80"/>
  <text x="102" y="246" class="small" fill="#fbfcfd">
    <tspan x="102" dy="0">Frame</tspan>
  </text>
  <text x="88" y="287" class="label" fill="#17202a">
    <tspan x="88" dy="0">/office-hours</tspan>
  </text>
  <text x="88" y="325" class="body" fill="#52616f">
    <tspan x="88" dy="0">Find the problem</tspan>
    <tspan x="88" dy="22">frame</tspan>
  </text>
  <line x1="260" y1="281" x2="285" y2="281" stroke="#0f7c80" stroke-width="3" stroke-linecap="round"/>
  <rect x="285" y="205" width="190" height="150" rx="8" fill="#ffffff" stroke="#c7d0d8" stroke-width="2"/>
  <rect x="303" y="223" width="96" height="34" rx="17" fill="#2f6fbd"/>
  <text x="317" y="246" class="small" fill="#fbfcfd">
    <tspan x="317" dy="0">Idea</tspan>
  </text>
  <text x="303" y="287" class="label" fill="#17202a">
    <tspan x="303" dy="0">/ideate</tspan>
  </text>
  <text x="303" y="325" class="body" fill="#52616f">
    <tspan x="303" dy="0">Generate survivor</tspan>
    <tspan x="303" dy="22">ideas</tspan>
  </text>
  <line x1="475" y1="281" x2="500" y2="281" stroke="#2f6fbd" stroke-width="3" stroke-linecap="round"/>
  <rect x="500" y="205" width="190" height="150" rx="8" fill="#ffffff" stroke="#c7d0d8" stroke-width="2"/>
  <rect x="518" y="223" width="166" height="34" rx="17" fill="#3f7d4d"/>
  <text x="532" y="246" class="small" fill="#fbfcfd">
    <tspan x="532" dy="0">Requirements</tspan>
  </text>
  <text x="518" y="287" class="label" fill="#17202a">
    <tspan x="518" dy="0">/brainstorm /</tspan>
    <tspan x="518" dy="22">/spec</tspan>
  </text>
  <text x="518" y="325" class="body" fill="#52616f">
    <tspan x="518" dy="0">Settle the WHAT</tspan>
  </text>
  <line x1="690" y1="281" x2="715" y2="281" stroke="#3f7d4d" stroke-width="3" stroke-linecap="round"/>
  <rect x="715" y="205" width="190" height="150" rx="8" fill="#ffffff" stroke="#c7d0d8" stroke-width="2"/>
  <rect x="733" y="223" width="96" height="34" rx="17" fill="#b7791f"/>
  <text x="747" y="246" class="small" fill="#fbfcfd">
    <tspan x="747" dy="0">Plan</tspan>
  </text>
  <text x="733" y="287" class="label" fill="#17202a">
    <tspan x="733" dy="0">/plan</tspan>
  </text>
  <text x="733" y="325" class="body" fill="#52616f">
    <tspan x="733" dy="0">Settle the HOW</tspan>
  </text>
  <line x1="905" y1="281" x2="930" y2="281" stroke="#b7791f" stroke-width="3" stroke-linecap="round"/>
  <rect x="930" y="205" width="190" height="150" rx="8" fill="#ffffff" stroke="#c7d0d8" stroke-width="2"/>
  <rect x="948" y="223" width="130" height="34" rx="17" fill="#b24a5a"/>
  <text x="962" y="246" class="small" fill="#fbfcfd">
    <tspan x="962" dy="0">Readiness</tspan>
  </text>
  <text x="948" y="287" class="label" fill="#17202a">
    <tspan x="948" dy="0">/doc-review</tspan>
  </text>
  <text x="948" y="325" class="body" fill="#52616f">
    <tspan x="948" dy="0">P0/P1 gate before</tspan>
    <tspan x="948" dy="22">work</tspan>
  </text>
  <line x1="1120" y1="281" x2="1145" y2="281" stroke="#b24a5a" stroke-width="3" stroke-linecap="round"/>
  <rect x="1145" y="205" width="190" height="150" rx="8" fill="#ffffff" stroke="#c7d0d8" stroke-width="2"/>
  <rect x="1163" y="223" width="96" height="34" rx="17" fill="#6b5fb5"/>
  <text x="1177" y="246" class="small" fill="#fbfcfd">
    <tspan x="1177" dy="0">Work</tspan>
  </text>
  <text x="1163" y="287" class="label" fill="#17202a">
    <tspan x="1163" dy="0">/work</tspan>
  </text>
  <text x="1163" y="325" class="body" fill="#52616f">
    <tspan x="1163" dy="0">Build, test, PR</tspan>
    <tspan x="1163" dy="22">loop</tspan>
  </text>
  <line x1="1335" y1="281" x2="1360" y2="281" stroke="#6b5fb5" stroke-width="3" stroke-linecap="round"/>
  <rect x="1360" y="205" width="190" height="150" rx="8" fill="#ffffff" stroke="#c7d0d8" stroke-width="2"/>
  <rect x="1378" y="223" width="142" height="34" rx="17" fill="#0f7c80"/>
  <text x="1392" y="246" class="small" fill="#fbfcfd">
    <tspan x="1392" dy="0">Acceptance</tspan>
  </text>
  <text x="1378" y="287" class="label" fill="#17202a">
    <tspan x="1378" dy="0">/qa</tspan>
  </text>
  <text x="1378" y="325" class="body" fill="#52616f">
    <tspan x="1378" dy="0">Evidence-backed</tspan>
    <tspan x="1378" dy="22">verdict</tspan>
  </text>
  <rect x="70" y="435" width="1460" height="170" rx="8" fill="#ffffff" stroke="#c7d0d8" stroke-width="2"/>
  <text x="100" y="480" class="label" fill="#17202a">
    <tspan x="100" dy="0">Off-chain and review loops</tspan>
  </text>
  <text x="100" y="520" class="label" fill="#2f6fbd">
    <tspan x="100" dy="0">/strategy</tspan>
  </text>
  <text x="290" y="520" class="body" fill="#52616f">
    <tspan x="290" dy="0">Records direction</tspan>
  </text>
  <text x="450" y="520" class="label" fill="#2f6fbd">
    <tspan x="450" dy="0">/founder-review</tspan>
  </text>
  <text x="640" y="520" class="body" fill="#52616f">
    <tspan x="640" dy="0">Challenges</tspan>
    <tspan x="640" dy="18">ambition/scope</tspan>
  </text>
  <text x="800" y="520" class="label" fill="#2f6fbd">
    <tspan x="800" dy="0">/investigate</tspan>
  </text>
  <text x="990" y="520" class="body" fill="#52616f">
    <tspan x="990" dy="0">Finds root cause</tspan>
  </text>
  <text x="1150" y="520" class="label" fill="#2f6fbd">
    <tspan x="1150" dy="0">/optimize</tspan>
  </text>
  <text x="1340" y="520" class="body" fill="#52616f">
    <tspan x="1340" dy="0">Runs metric</tspan>
    <tspan x="1340" dy="18">experiments</tspan>
  </text>
  <text x="100" y="560" class="label" fill="#2f6fbd">
    <tspan x="100" dy="0">/handoff</tspan>
  </text>
  <text x="290" y="560" class="body" fill="#52616f">
    <tspan x="290" dy="0">Builds issue</tspan>
    <tspan x="290" dy="18">envelope</tspan>
  </text>
  <text x="450" y="560" class="label" fill="#2f6fbd">
    <tspan x="450" dy="0">/retro</tspan>
  </text>
  <text x="640" y="560" class="body" fill="#52616f">
    <tspan x="640" dy="0">Captures learning</tspan>
  </text>
  <text x="800" y="560" class="label" fill="#2f6fbd">
    <tspan x="800" dy="0">/resume</tspan>
  </text>
  <text x="990" y="560" class="body" fill="#52616f">
    <tspan x="990" dy="0">Forensic</tspan>
    <tspan x="990" dy="18">reconstruction</tspan>
  </text>
  <text x="1150" y="560" class="label" fill="#2f6fbd">
    <tspan x="1150" dy="0">/loop</tspan>
  </text>
  <text x="1340" y="560" class="body" fill="#52616f">
    <tspan x="1340" dy="0">Routes and re-</tspan>
    <tspan x="1340" dy="18">enters</tspan>
  </text>
  <rect x="70" y="650" width="1460" height="140" rx="8" fill="#ffffff" stroke="#c7d0d8" stroke-width="2"/>
  <text x="100" y="694" class="label" fill="#17202a">
    <tspan x="100" dy="0">Destination horizon</tspan>
  </text>
  <rect x="360" y="670" width="130" height="34" rx="17" fill="#2f6fbd"/>
  <text x="374" y="693" class="small" fill="#fbfcfd">
    <tspan x="374" dy="0">plan-only</tspan>
  </text>
  <text x="360" y="724" class="body" fill="#52616f">
    <tspan x="360" dy="0">Stop at a written,</tspan>
    <tspan x="360" dy="20">reviewed plan.</tspan>
  </text>
  <rect x="645" y="670" width="96" height="34" rx="17" fill="#2f6fbd"/>
  <text x="659" y="693" class="small" fill="#fbfcfd">
    <tspan x="659" dy="0">pr</tspan>
  </text>
  <text x="645" y="724" class="body" fill="#52616f">
    <tspan x="645" dy="0">Run through /work to an</tspan>
    <tspan x="645" dy="20">open PR.</tspan>
  </text>
  <rect x="930" y="670" width="96" height="34" rx="17" fill="#3f7d4d"/>
  <text x="944" y="693" class="small" fill="#fbfcfd">
    <tspan x="944" dy="0">merge</tspan>
  </text>
  <text x="930" y="724" class="body" fill="#52616f">
    <tspan x="930" dy="0">Add /work&#x27;s confirmed</tspan>
    <tspan x="930" dy="20">merge of the PR.</tspan>
  </text>
  <rect x="1215" y="670" width="190" height="34" rx="17" fill="#2f6fbd"/>
  <text x="1229" y="693" class="small" fill="#fbfcfd">
    <tspan x="1229" dy="0">nonprod-deploy</tspan>
  </text>
  <text x="1215" y="724" class="body" fill="#52616f">
    <tspan x="1215" dy="0">After merge, hand</tspan>
    <tspan x="1215" dy="20">deployment mutation to</tspan>
    <tspan x="1215" dy="20">deploy.</tspan>
  </text>
  <text x="70" y="840" class="small" fill="#52616f">
    <tspan x="70" dy="0">Hard gate: unresolved /doc-review P0/P1 blocks /work. PR and merge remain confirmed /work actions.</tspan>
  </text>
</svg>
