<svg xmlns="http://www.w3.org/2000/svg" width="1600" height="900" viewBox="0 0 1600 900" role="img" aria-labelledby="title desc">
  <title id="title">Ownership Boundary Map</title>
  <desc id="desc">Saga ownership beside mission-control, deploy, and team-execution.</desc>
  <!-- Generated by plugins/saga/scripts/render_docs_visuals.py from plugins/saga/docs/model/saga-docs-model.yaml. Do not edit by hand. -->
  <rect width="1600" height="900" fill="#fbfcfd"/>
  <style>
    .title { font: 700 42px -apple-system, BlinkMacSystemFont, Segoe UI, sans-serif; }
    .subtitle { font: 500 22px -apple-system, BlinkMacSystemFont, Segoe UI, sans-serif; }
    .label { font: 700 20px -apple-system, BlinkMacSystemFont, Segoe UI, sans-serif; }
    .body { font: 500 17px -apple-system, BlinkMacSystemFont, Segoe UI, sans-serif; }
    .small { font: 500 14px -apple-system, BlinkMacSystemFont, Segoe UI, sans-serif; }
  </style>
  <text x="70" y="80" class="title" fill="#17202a">
    <tspan x="70" dy="0">Ownership Boundary Map</tspan>
  </text>
  <text x="70" y="118" class="subtitle" fill="#52616f">
    <tspan x="70" dy="0">Saga links to adjacent owners; it does not mutate their state.</tspan>
  </text>
  <rect x="70" y="185" width="350" height="560" rx="8" fill="#ffffff" stroke="#c7d0d8" stroke-width="2"/>
  <rect x="94" y="215" width="96" height="34" rx="17" fill="#0f7c80"/>
  <text x="108" y="238" class="small" fill="#fbfcfd">
    <tspan x="108" dy="0">saga</tspan>
  </text>
  <text x="94" y="285" class="label" fill="#17202a">
    <tspan x="94" dy="0">Owns</tspan>
  </text>
  <text x="112" y="320" class="body" fill="#52616f">
    <tspan x="112" dy="0">- lifecycle choice</tspan>
  </text>
  <text x="112" y="368" class="body" fill="#52616f">
    <tspan x="112" dy="0">- local saga state</tspan>
  </text>
  <text x="112" y="416" class="body" fill="#52616f">
    <tspan x="112" dy="0">- routing decisions</tspan>
  </text>
  <text x="112" y="464" class="body" fill="#52616f">
    <tspan x="112" dy="0">- handoff envelopes</tspan>
  </text>
  <text x="94" y="575" class="label" fill="#b24a5a">
    <tspan x="94" dy="0">Must not own</tspan>
  </text>
  <text x="112" y="610" class="body" fill="#52616f">
    <tspan x="112" dy="0">- GitHub issue mutation</tspan>
  </text>
  <text x="112" y="654" class="body" fill="#52616f">
    <tspan x="112" dy="0">- deployment mutation</tspan>
  </text>
  <text x="112" y="698" class="body" fill="#52616f">
    <tspan x="112" dy="0">- reviewer/validator</tspan>
    <tspan x="112" dy="18">orchestration internals</tspan>
  </text>
  <rect x="440" y="185" width="350" height="560" rx="8" fill="#ffffff" stroke="#c7d0d8" stroke-width="2"/>
  <rect x="464" y="215" width="202" height="34" rx="17" fill="#2f6fbd"/>
  <text x="478" y="238" class="small" fill="#fbfcfd">
    <tspan x="478" dy="0">mission-control</tspan>
  </text>
  <text x="464" y="285" class="label" fill="#17202a">
    <tspan x="464" dy="0">Owns</tspan>
  </text>
  <text x="482" y="320" class="body" fill="#52616f">
    <tspan x="482" dy="0">- SDLC issue bodies</tspan>
  </text>
  <text x="482" y="368" class="body" fill="#52616f">
    <tspan x="482" dy="0">- prepared issue drafts</tspan>
  </text>
  <text x="482" y="416" class="body" fill="#52616f">
    <tspan x="482" dy="0">- labels and project fields</tspan>
  </text>
  <text x="482" y="464" class="body" fill="#52616f">
    <tspan x="482" dy="0">- GitHub issue mutation</tspan>
  </text>
  <text x="464" y="575" class="label" fill="#b7791f">
    <tspan x="464" dy="0">Saga holds</tspan>
  </text>
  <text x="482" y="610" class="body" fill="#52616f">
    <tspan x="482" dy="0">- issue_ref pointer</tspan>
  </text>
  <rect x="810" y="185" width="350" height="560" rx="8" fill="#ffffff" stroke="#c7d0d8" stroke-width="2"/>
  <rect x="834" y="215" width="96" height="34" rx="17" fill="#3f7d4d"/>
  <text x="848" y="238" class="small" fill="#fbfcfd">
    <tspan x="848" dy="0">deploy</tspan>
  </text>
  <text x="834" y="285" class="label" fill="#17202a">
    <tspan x="834" dy="0">Owns</tspan>
  </text>
  <text x="852" y="320" class="body" fill="#52616f">
    <tspan x="852" dy="0">- tag promotion</tspan>
  </text>
  <text x="852" y="368" class="body" fill="#52616f">
    <tspan x="852" dy="0">- deployment mutation</tspan>
  </text>
  <text x="852" y="416" class="body" fill="#52616f">
    <tspan x="852" dy="0">- environment state</tspan>
  </text>
  <text x="834" y="575" class="label" fill="#b7791f">
    <tspan x="834" dy="0">Saga holds</tspan>
  </text>
  <text x="852" y="610" class="body" fill="#52616f">
    <tspan x="852" dy="0">- destination intent</tspan>
  </text>
  <text x="852" y="654" class="body" fill="#52616f">
    <tspan x="852" dy="0">- pr_refs</tspan>
  </text>
  <rect x="1180" y="185" width="350" height="560" rx="8" fill="#ffffff" stroke="#c7d0d8" stroke-width="2"/>
  <rect x="1204" y="215" width="190" height="34" rx="17" fill="#6b5fb5"/>
  <text x="1218" y="238" class="small" fill="#fbfcfd">
    <tspan x="1218" dy="0">team-execution</tspan>
  </text>
  <text x="1204" y="285" class="label" fill="#17202a">
    <tspan x="1204" dy="0">Owns</tspan>
  </text>
  <text x="1222" y="320" class="body" fill="#52616f">
    <tspan x="1222" dy="0">- reviewer orchestration</tspan>
  </text>
  <text x="1222" y="368" class="body" fill="#52616f">
    <tspan x="1222" dy="0">- validator orchestration</tspan>
  </text>
  <text x="1222" y="416" class="body" fill="#52616f">
    <tspan x="1222" dy="0">- consensus protocol</tspan>
  </text>
  <text x="1204" y="575" class="label" fill="#b7791f">
    <tspan x="1204" dy="0">Saga holds</tspan>
  </text>
  <text x="1222" y="610" class="body" fill="#52616f">
    <tspan x="1222" dy="0">- orchestration_mode</tspan>
  </text>
  <text x="1222" y="654" class="body" fill="#52616f">
    <tspan x="1222" dy="0">- orchestration_ref</tspan>
  </text>
  <text x="70" y="835" class="label" fill="#52616f">
    <tspan x="70" dy="0">Owner wins when cached Saga pointers disagree with the source system.</tspan>
  </text>
</svg>
