<svg xmlns="http://www.w3.org/2000/svg" width="1600" height="900" viewBox="0 0 1600 900" role="img" aria-labelledby="title desc">
  <title id="title">State and Readiness Ladder</title>
  <desc id="desc">Stored saga state axes beside derived handoff maturity.</desc>
  <!-- Generated by plugins/saga/scripts/render_docs_visuals.py from plugins/saga/docs/model/saga-docs-model.yaml. Do not edit by hand. -->
  <rect width="1600" height="900" fill="#fbfcfd"/>
  <style>
    .title { font: 700 42px -apple-system, BlinkMacSystemFont, Segoe UI, sans-serif; }
    .subtitle { font: 500 22px -apple-system, BlinkMacSystemFont, Segoe UI, sans-serif; }
    .label { font: 700 20px -apple-system, BlinkMacSystemFont, Segoe UI, sans-serif; }
    .body { font: 500 17px -apple-system, BlinkMacSystemFont, Segoe UI, sans-serif; }
    .small { font: 500 14px -apple-system, BlinkMacSystemFont, Segoe UI, sans-serif; }
  </style>
  <text x="70" y="80" class="title" fill="#17202a">
    <tspan x="70" dy="0">State and Readiness Ladder</tspan>
  </text>
  <text x="70" y="118" class="subtitle" fill="#52616f">
    <tspan x="70" dy="0">Stored state answers where the thread is; readiness is derived at handoff.</tspan>
  </text>
  <rect x="70" y="180" width="620" height="560" rx="8" fill="#ffffff" stroke="#c7d0d8" stroke-width="2"/>
  <text x="110" y="230" class="label" fill="#17202a">
    <tspan x="110" dy="0">Stored saga axes</tspan>
  </text>
  <rect x="110" y="285" width="520" height="105" rx="8" fill="#ffffff" stroke="#c7d0d8" stroke-width="2"/>
  <text x="140" y="323" class="label" fill="#2f6fbd">
    <tspan x="140" dy="0">lifecycle_phase</tspan>
  </text>
  <text x="140" y="353" class="body" fill="#52616f">
    <tspan x="140" dy="0">ideation, brainstorm, plan, review, work, qa,</tspan>
    <tspan x="140" dy="22">retro</tspan>
  </text>
  <rect x="110" y="420" width="520" height="105" rx="8" fill="#ffffff" stroke="#c7d0d8" stroke-width="2"/>
  <text x="140" y="458" class="label" fill="#2f6fbd">
    <tspan x="140" dy="0">phase_status</tspan>
  </text>
  <text x="140" y="488" class="body" fill="#52616f">
    <tspan x="140" dy="0">pending, in_progress, complete</tspan>
  </text>
  <rect x="110" y="555" width="520" height="105" rx="8" fill="#ffffff" stroke="#c7d0d8" stroke-width="2"/>
  <text x="140" y="593" class="label" fill="#2f6fbd">
    <tspan x="140" dy="0">status</tspan>
  </text>
  <text x="140" y="623" class="body" fill="#52616f">
    <tspan x="140" dy="0">active, blocked, paused, handed-off, done,</tspan>
    <tspan x="140" dy="22">abandoned</tspan>
  </text>
  <rect x="760" y="180" width="770" height="560" rx="8" fill="#ffffff" stroke="#c7d0d8" stroke-width="2"/>
  <text x="800" y="230" class="label" fill="#17202a">
    <tspan x="800" dy="0">Derived maturity passport</tspan>
  </text>
  <rect x="800" y="285" width="660" height="82" rx="8" fill="#ffffff" stroke="#c7d0d8" stroke-width="2"/>
  <text x="830" y="319" class="body" fill="#52616f">
    <tspan x="830" dy="0">docs/ideation/</tspan>
  </text>
  <text x="1115" y="319" class="label" fill="#3f7d4d">
    <tspan x="1115" dy="0">idea-ready</tspan>
  </text>
  <text x="1370" y="319" class="label" fill="#2f6fbd">
    <tspan x="1370" dy="0">/plan</tspan>
  </text>
  <rect x="800" y="390" width="660" height="82" rx="8" fill="#ffffff" stroke="#c7d0d8" stroke-width="2"/>
  <text x="830" y="424" class="body" fill="#52616f">
    <tspan x="830" dy="0">docs/brainstorms/ + docs/specs/</tspan>
  </text>
  <text x="1115" y="424" class="label" fill="#3f7d4d">
    <tspan x="1115" dy="0">requirements-ready</tspan>
  </text>
  <text x="1370" y="424" class="label" fill="#2f6fbd">
    <tspan x="1370" dy="0">/plan</tspan>
  </text>
  <rect x="800" y="495" width="660" height="82" rx="8" fill="#ffffff" stroke="#c7d0d8" stroke-width="2"/>
  <text x="830" y="529" class="body" fill="#52616f">
    <tspan x="830" dy="0">docs/plans/ + docs/reviews/</tspan>
  </text>
  <text x="1115" y="529" class="label" fill="#3f7d4d">
    <tspan x="1115" dy="0">plan-ready</tspan>
  </text>
  <text x="1370" y="529" class="label" fill="#2f6fbd">
    <tspan x="1370" dy="0">/work</tspan>
  </text>
  <rect x="800" y="600" width="660" height="82" rx="8" fill="#ffffff" stroke="#c7d0d8" stroke-width="2"/>
  <text x="830" y="634" class="body" fill="#52616f">
    <tspan x="830" dy="0">docs/work-sessions/ + branch refs</tspan>
  </text>
  <text x="1115" y="634" class="label" fill="#3f7d4d">
    <tspan x="1115" dy="0">resume-ready</tspan>
  </text>
  <text x="1370" y="634" class="label" fill="#2f6fbd">
    <tspan x="1370" dy="0">/work</tspan>
  </text>
  <rect x="760" y="760" width="770" height="70" rx="8" fill="#ffffff" stroke="#b7791f" stroke-width="2"/>
  <text x="800" y="804" class="label" fill="#b7791f">
    <tspan x="800" dy="0">Rule: maturity is derived, never stored in saga frontmatter.</tspan>
  </text>
</svg>
